<?xml version="1.0"?>
<!DOCTYPE svg PUBLIC "-//W3C//DTD SVG 1.1//EN" "http://www.w3.org/Graphics/SVG/1.1/DTD/svg11.dtd">
<svg width="36.72mm" height="5.07mm" viewBox="0 0 36.72 5.07" xmlns="http://www.w3.org/2000/svg" version="1.1">
<g id="Compound" transform="translate(18.360000,2.010000) scale(1,-1)">
<path id="Compound_f0000"  d="M 14.4 0.0 M 14.4 0.0 L 14.4 0.0 L 14.4 1.65 M 14.4 1.65 L 14.4 1.65 Z " stroke="#191919" stroke-width="0.35 px" style="stroke-width:0.35;stroke-miterlimit:4;stroke-dasharray:none;fill:#cccccc;fill-opacity:1.0;fill-rule: evenodd"/>
<path id="Compound_f0001"  d="M -14.4 0.0 M -14.4 0.0 L -14.4 0.0 L -14.4 1.65 M -14.4 1.65 L -14.4 1.65 Z " stroke="#191919" stroke-width="0.35 px" style="stroke-width:0.35;stroke-miterlimit:4;stroke-dasharray:none;fill:#cccccc;fill-opacity:1.0;fill-rule: evenodd"/>
<path id="Compound_f0004"  d="M -18.0 0.0 L 18.0 0.0 L 18.0 1.65 L -18.0 1.65 L -18.0 0.0 Z " stroke="#191919" stroke-width="0.35 px" style="stroke-width:0.35;stroke-miterlimit:4;stroke-dasharray:none;fill:#cccccc;fill-opacity:1.0;fill-rule: evenodd"/>
<path id="Compound_f0005"  d="M -18.0 0.0 L -18.0 0.0 L -18.0 1.65 L -18.0 1.65 L -18.0 0.0 Z " stroke="#191919" stroke-width="0.35 px" style="stroke-width:0.35;stroke-miterlimit:4;stroke-dasharray:none;fill:#cccccc;fill-opacity:1.0;fill-rule: evenodd"/>
<path id="Compound_f0006"  d="M 18.0 0.0 L -18.0 0.0 L -18.0 1.65 L 18.0 1.65 L 18.0 0.0 Z " stroke="#191919" stroke-width="0.35 px" style="stroke-width:0.35;stroke-miterlimit:4;stroke-dasharray:none;fill:#cccccc;fill-opacity:1.0;fill-rule: evenodd"/>
<path id="Compound_f0007"  d="M 18.0 0.0 L 18.0 0.0 L 18.0 1.65 L 18.0 1.65 L 18.0 0.0 Z " stroke="#191919" stroke-width="0.35 px" style="stroke-width:0.35;stroke-miterlimit:4;stroke-dasharray:none;fill:#cccccc;fill-opacity:1.0;fill-rule: evenodd"/>
<path id="Compound_f0010"  d="M 11.0 0.0 L -11.0 0.0 L -11.0 -2.7 L 11.0 -2.7 L 11.0 0.0 Z " stroke="#191919" stroke-width="0.35 px" style="stroke-width:0.35;stroke-miterlimit:4;stroke-dasharray:none;fill:#cccccc;fill-opacity:1.0;fill-rule: evenodd"/>
<path id="Compound_f0011"  d="M 11.0 0.0 L 11.0 0.0 L 11.0 -2.7 L 11.0 -2.7 L 11.0 0.0 Z " stroke="#191919" stroke-width="0.35 px" style="stroke-width:0.35;stroke-miterlimit:4;stroke-dasharray:none;fill:#cccccc;fill-opacity:1.0;fill-rule: evenodd"/>
<path id="Compound_f0012"  d="M -11.0 0.0 L 11.0 0.0 L 11.0 -2.7 L -11.0 -2.7 L -11.0 0.0 Z " stroke="#191919" stroke-width="0.35 px" style="stroke-width:0.35;stroke-miterlimit:4;stroke-dasharray:none;fill:#cccccc;fill-opacity:1.0;fill-rule: evenodd"/>
<path id="Compound_f0013"  d="M -11.0 0.0 L -11.0 0.0 L -11.0 -2.7 L -11.0 -2.7 L -11.0 0.0 Z " stroke="#191919" stroke-width="0.35 px" style="stroke-width:0.35;stroke-miterlimit:4;stroke-dasharray:none;fill:#cccccc;fill-opacity:1.0;fill-rule: evenodd"/>
<path id="Compound_f0014"  d="M -11.0 -2.7 L -11.0 -2.7 L 11.0 -2.7 L 11.0 -2.7 L -11.0 -2.7 Z " stroke="#191919" stroke-width="0.35 px" style="stroke-width:0.35;stroke-miterlimit:4;stroke-dasharray:none;fill:#cccccc;fill-opacity:1.0;fill-rule: evenodd"/>
<path id="Compound_f0015"  d="M 11.0 0.0 L 11.0 0.0 L -11.0 0.0 L -11.0 0.0 L 11.0 0.0 Z " stroke="#191919" stroke-width="0.35 px" style="stroke-width:0.35;stroke-miterlimit:4;stroke-dasharray:none;fill:#cccccc;fill-opacity:1.0;fill-rule: evenodd"/>
<title>b'Arducam OV5647 v1'</title>
</g>
</svg>